{"title":"The Soloist-AC3-5,1-DVDRip[Eng]2009","uid":5018969,"size":1464804902,"categoryP":"video","categoryS":"movies","magnet":"?xt=urn:btih:e952f8e4063dea27d5aea46497c03a3d020745e2&amp;dn=The+Soloist-AC3-5%2C1-DVDRip%5BEng%5D2009&amp;tr=udp%3A%2F%2Ftracker.openbittorrent.com%3A80&amp;tr=udp%3A%2F%2Fopen.demonii.com%3A1337&amp;tr=udp%3A%2F%2Ftracker.coppersurfer.tk%3A6969&amp;tr=udp%3A%2F%2Fexodus.desync.com%3A6969","seeders":0,"leechers":0,"uploader":"FatFreddy31","files":5,"time":1248365220,"description":" &lt;a href=&quot;http://www.imdb.com/title/tt0821642/&quot; rel=&quot;nofollow&quot; target=&quot;_NEW&quot;&gt;http://www.imdb.com/title/tt0821642/&lt;/a&gt;\n\nUser Rating:7.2/10 - 3,130 votes\n\nBiography,Drama,Music\n\nDirector:Joe Wright\n\nCast:Jamie Foxx/Robert Downey Jr./Meggan Anderson/Halbert Bernal, and others.\n\nPlot:\nIn 2005, the only thing hurting Los Angeles Times columnist Steve Lopez more than his face from a recent bike accident was his pressing need for story ideas. That is when he discovers Nathaniel Ayers, a mentally ill, homeless street musician who possesses extraordinary talent, even through his half-broken instruments. Inspired by his story, Lopez writes an acclaimed series of articles about Ayers and attempts to do more to help both him, and the rest of the underclass of LA have a better life. However, Lopez's good intentions run headlong in the hard realities \nof the strength of Ayers' personal demons and the larger social injustices facing the homeless. Regardless, Lopez and Ayers must find away to conquer their deepest anxieties and frustrations to hope for a brighter future for both of them...\n\nInfo:\n\nCovers included.\n\nGeneral\nComplete name                    : The Soloist-AC3-5,1-DVDRip[Eng]2009.avi\nFormat                           : AVI\nFormat/Info                      : Audio Video Interleave\nFile size                        : 1.36 GiB\nDuration                         : 1h 57mn\nOverall bit rate                 : 1 667 Kbps\nWriting application              : VirtualDubMod 1.5.4.1 (build 2178/release)\nWriting library                  : VirtualDubMod build 2178/release\n\nVideo\nFormat                           : MPEG-4 Visual\nFormat profile                   : Simple@L3\nFormat settings, BVOP            : No\nFormat settings, QPel            : No\nFormat settings, GMC             : No warppoints\nFormat settings, Matrix          : Default\nCodec ID                         : XVID\nCodec ID/Hint                    : XviD\nDuration                         : 1h 57mn\nBit rate                         : 1 209 Kbps\nWidth                            : 640 pixels\nHeight                           : 272 pixels\nDisplay aspect ratio             : 2.35\nFrame rate                       : 25.000 fps\nResolution                       : 24 bits\nColorimetry                      : 4:2:0\nScan type                        : Progressive\nBits/(Pixel*Frame)               : 0.278\nStream size                      : 1 012 MiB (73%)\nWriting library                  : XviD 1.1.2 (UTC 2006-11-01)\n\nAudio\nFormat                           : AC-3\nFormat/Info                      : Audio Coding 3\nCodec ID                         : 2000\nDuration                         : 1h 57mn\nBit rate mode                    : Constant\nBit rate                         : 448 Kbps\nChannel(s)                       : 6 channels\nChannel positions                : Front: L C R, Surround: L R, LFE\nSampling rate                    : 48.0 KHz\nStream size                      : 375 MiB (27%)\nAlignment                        : Split accross interleaves\nInterleave, duration             : 40 ms (1.00 video frame)\nInterleave, preload duration     : 500 ms\n\nEnjoy...","torrent":{"xt":"urn:btih:e952f8e4063dea27d5aea46497c03a3d020745e2","amp;dn":"The+Soloist-AC3-5%2C1-DVDRip%5BEng%5D2009","amp;tr":["udp%3A%2F%2Ftracker.openbittorrent.com%3A80","udp%3A%2F%2Fopen.demonii.com%3A1337","udp%3A%2F%2Ftracker.coppersurfer.tk%3A6969","udp%3A%2F%2Fexodus.desync.com%3A6969"],"infoHash":"e952f8e4063dea27d5aea46497c03a3d020745e2","infoHashBuffer":{"type":"Buffer","data":[233,82,248,228,6,61,234,39,213,174,164,100,151,192,58,61,2,7,69,226]},"announce":[],"urlList":[]}}